<?xml version="1.0" encoding="UTF-8"?><svg xmlns="http://www.w3.org/2000/svg" xmlns:xlink="http://www.w3.org/1999/xlink" version="1.1" id="Layer_1" x="0px" y="0px" viewBox="0 0 24 24" xml:space="preserve"><path fill="#303C42" d="M12 0C7.589 0 4 3.589 4 8c0 1.324.331 2.637.96 3.802l6.602 11.94a.5.5 0 0 0 .875 0l6.605-11.944A8.014 8.014 0 0 0 20 8c0-4.411-3.589-8-8-8z"/><path fill="#1E88E5" d="M18.165 11.318L12 22.467 5.838 11.322A7.009 7.009 0 0 1 5 8c0-3.86 3.14-7 7-7s7 3.14 7 7c0 1.159-.29 2.308-.835 3.318z"/><circle fill="#303C42" cx="12" cy="8" r="5.5"/><path fill="#D32F2F" d="M14.793 4.5L12 7.293 9.207 4.5c.77-.616 1.733-1 2.793-1s2.023.384 2.793 1z"/><path fill="#D32F2F" d="M8.5 5.207L11.293 8 8.5 10.793c-.616-.77-1-1.733-1-2.793s.384-2.023 1-2.793z"/><path fill="#D32F2F" d="M9.207 11.5L12 8.707l2.793 2.793c-.77.616-1.733 1-2.793 1s-2.023-.384-2.793-1z"/><path fill="#D32F2F" d="M15.5 10.793L12.707 8 15.5 5.207c.616.77 1 1.733 1 2.793s-.384 2.023-1 2.793z"/><path opacity="0.1" d="M8.5 9.5C8.5 7.019 10.519 5 13 5c1.232 0 2.35.5 3.163 1.305A4.502 4.502 0 0 0 12 3.5 4.505 4.505 0 0 0 7.5 8c0 1.249.513 2.38 1.337 3.195A4.468 4.468 0 0 1 8.5 9.5z"/><linearGradient id="SVGID_1_" gradientUnits="userSpaceOnUse" x1="3.3662226" y1="7.5866475" x2="17.867569" y2="14.3487358"><stop offset="0" stop-color="#FFF" stop-opacity="0.2"/><stop offset="1" stop-color="#FFF" stop-opacity="0"/></linearGradient><path fill="url(#SVGID_1_)" d="M12 0C7.589 0 4 3.589 4 8c0 1.324.331 2.637.96 3.802l6.602 11.94a.5.5 0 0 0 .875 0l6.605-11.944A8.014 8.014 0 0 0 20 8c0-4.411-3.589-8-8-8z"/><metadata><rdf:RDF xmlns:rdf="http://www.w3.org/1999/02/22-rdf-syntax-ns#" xmlns:rdfs="http://www.w3.org/2000/01/rdf-schema#" xmlns:dc="http://purl.org/dc/elements/1.1/"><rdf:Description about="https://iconscout.com/legal#licenses" dc:title="map,location,pin,geolocation,error" dc:description="map,location,pin,geolocation,error" dc:publisher="Iconscout" dc:date="2017-08-16" dc:format="image/svg+xml" dc:language="en"><dc:creator><rdf:Bag><rdf:li>Those Icons</rdf:li></rdf:Bag></dc:creator></rdf:Description></rdf:RDF></metadata></svg>